# xmcd
# 
# Track frame offsets:
#     150
#     7860
#     16369
#     27817
#     40881
#     48730
#     58268
#     69370
#     73823
#     84412
#     96049
#     108307
#     132055
#     143871
#     157880
# 
# Disc length: 2208
# 
# Revision: 0
# Processed by: cddbd v1.5.2PL0 Copyright (c) Steve Scherf et al.
# Submitted via: fre:ac v1.1beta1pre4
# 
DISCID=bf089e0f
DTITLE=Trio Casadesus-Enhco - Chansons de France pour les petits enfants
DYEAR=2015
DGENRE=Folk
TTITLE0=Ah! Vous dirai-je, Maman
TTITLE1=Nous n'irons plus au Bois
TTITLE2=Le Chevalier du Guet
TTITLE3=Chanson du matelot
TTITLE4=Le Furet du Bois Joli
TTITLE5=Cadet Rousselle
TTITLE6=La Bonne Aventure
TTITLE7=J'ai du bon Tabac
TTITLE8=Au Clair de la Lune
TTITLE9=Compere Guilleri
TTITLE10=Gentil Coq'licot
TTITLE11=Malbrough
TTITLE12=Le Pont d'Avignon
TTITLE13=Le Roi Dagobert
TTITLE14=Frere Jacques
EXTD=Caroline Casadesus - Chant - David Enhco - Trompette, Chant - Thomas Enhco - Piano, Violon, Chant, Arrangements
EXTT0=Caroline Casadesus - Chant - David Enhco - Trompette, Chant - Thomas Enhco - Piano, Violon, Chant, Arrangements
EXTT1=Caroline Casadesus - Chant - David Enhco - Trompette, Chant - Thomas Enhco - Piano, Violon, Chant, Arrangements
EXTT2=Caroline Casadesus - Chant - David Enhco - Trompette, Chant - Thomas Enhco - Piano, Violon, Chant, Arrangements
EXTT3=Caroline Casadesus - Chant - David Enhco - Trompette, Chant - Thomas Enhco - Piano, Violon, Chant, Arrangements
EXTT4=Caroline Casadesus - Chant - David Enhco - Trompette, Chant - Thomas Enhco - Piano, Violon, Chant, Arrangements
EXTT5=Caroline Casadesus - Chant - David Enhco - Trompette, Chant - Thomas Enhco - Piano, Violon, Chant, Arrangements
EXTT6=Caroline Casadesus - Chant - David Enhco - Trompette, Chant - Thomas Enhco - Piano, Violon, Chant, Arrangements
EXTT7=Caroline Casadesus - Chant - David Enhco - Trompette, Chant - Thomas Enhco - Piano, Violon, Chant, Arrangements
EXTT8=Caroline Casadesus - Chant - David Enhco - Trompette, Chant - Thomas Enhco - Piano, Violon, Chant, Arrangements
EXTT9=Caroline Casadesus - Chant - David Enhco - Trompette, Chant - Thomas Enhco - Piano, Violon, Chant, Arrangements
EXTT10=Caroline Casadesus - Chant - David Enhco - Trompette, Chant - Thomas Enhco - Piano, Violon, Chant, Arrangements
EXTT11=Caroline Casadesus - Chant - David Enhco - Trompette, Chant - Thomas Enhco - Piano, Violon, Chant, Arrangements
EXTT12=Caroline Casadesus - Chant - David Enhco - Trompette, Chant - Thomas Enhco - Piano, Violon, Chant, Arrangements
EXTT13=Caroline Casadesus - Chant - David Enhco - Trompette, Chant - Thomas Enhco - Piano, Violon, Chant, Arrangements
EXTT14=Caroline Casadesus - Chant - David Enhco - Trompette, Chant - Thomas Enhco - Piano, Violon, Chant, Arrangements
PLAYORDER=
